# xmcd
#
# Track frame offsets:
#	150
#	16998
#	36635
#	55990
#	74519
#	93673
#	110196
#	124207
#	145965
#	167555
#	187941
#
# Disc length: 2745 seconds
# Revision: 0
# Processed by: cddbd v1.5.2PL0 Copyright (c) Steve Scherf et al.
# Submitted via: dBpowerAMP V12.0
#
DISCID=a60ab70b
DTITLE=Shaun Murphy - It Won't Stop Raining
DYEAR=2016
DGENRE=Blues
TTITLE0=Spreadin' The News
TTITLE1=Your Husband Is Cheatin' On Us
TTITLE2=Happy With The One I Got Now
TTITLE3=It Won't Stop Raining
TTITLE4=Running Out Of Time
TTITLE5=Price Of Love
TTITLE6=Hey Baby (Don't You Remember Me)
TTITLE7=That's How A Woman Loves
TTITLE8=Need Your Love So Bad
TTITLE9=I Hate The Blues (But The Blues Sure Seem To Love Me)
TTITLE10=Fool For You
EXTD=
EXTT0=
EXTT1=
EXTT2=
EXTT3=
EXTT4=
EXTT5=
EXTT6=
EXTT7=
EXTT8=
EXTT9=
EXTT10=
PLAYORDER=
